<?xml version="1.0" encoding="utf-8"?>
<!-- Generator: Adobe Illustrator 27.5.0, SVG Export Plug-In . SVG Version: 6.00 Build 0)  -->
<svg version="1.1" id="Layer_1" xmlns="http://www.w3.org/2000/svg" xmlns:xlink="http://www.w3.org/1999/xlink" x="0px" y="0px"
	 viewBox="0 0 4000 4000" style="enable-background:new 0 0 4000 4000;" xml:space="preserve">
<g>
	<g>
		<g>
			<g>
				<g>
					<rect x="1850.598" y="441.024" style="fill:#501E65;" width="12.991" height="363.761"/>
				</g>
			</g>
			<g>
				<g>
					<rect x="1915.556" y="3234.186" style="fill:#501E65;" width="12.991" height="363.761"/>
				</g>
			</g>
		</g>
		<g>
			<g>
				<g>
					
						<rect x="592.431" y="727.887" transform="matrix(0.7071 -0.7071 0.7071 0.7071 -467.8814 689.9686)" style="fill:#501E65;" width="12.99" height="363.762"/>
				</g>
			</g>
			<g>
				<g>
					
						<rect x="3277.656" y="3142.194" transform="matrix(0.7071 -0.7071 0.7071 0.7071 -1388.5715 3295.8132)" style="fill:#501E65;" width="12.99" height="363.765"/>
				</g>
			</g>
		</g>
		<g>
			<g>
				<g>
					<rect x="100" y="2107.178" style="fill:#501E65;" width="363.761" height="12.991"/>
				</g>
			</g>
			<g>
				<g>
					<rect x="3536.239" y="1956.152" style="fill:#501E65;" width="363.761" height="12.991"/>
				</g>
			</g>
		</g>
		<g>
			<g>
				<g>
					
						<rect x="471.306" y="3228.938" transform="matrix(0.7071 -0.7071 0.7071 0.7071 -2096.5195 1409.5664)" style="fill:#501E65;" width="363.764" height="12.99"/>
				</g>
			</g>
			<g>
				<g>
					
						<rect x="2768.691" y="978.925" transform="matrix(0.7071 -0.7071 0.7071 0.7071 167.4054 2374.9927)" style="fill:#501E65;" width="363.762" height="12.99"/>
				</g>
			</g>
		</g>
		<g>
			<g>
				<g>
					<g>
						<path style="fill:#501E65;" d="M1237.199,770.923c-9.151-20.369,7.213-39.336,21.65-56.067
							c13.061-15.139,25.396-29.434,19.636-42.26c-5.76-12.823-24.641-13.099-44.633-13.391
							c-22.097-0.323-47.141-0.688-56.292-21.06c-9.147-20.359,7.219-39.317,21.66-56.045
							c13.061-15.132,25.399-29.424,19.646-42.235c-5.757-12.817-24.638-13.09-44.626-13.378
							c-22.094-0.32-47.138-0.682-56.286-21.048c-9.147-20.359,7.219-39.317,21.66-56.045
							c13.061-15.132,25.399-29.424,19.646-42.235l11.849-5.322c9.147,20.36-7.219,39.317-21.66,56.045
							c-13.061,15.132-25.399,29.424-19.646,42.235c5.757,12.817,24.638,13.09,44.626,13.378
							c22.094,0.32,47.139,0.682,56.286,21.048c9.148,20.359-7.219,39.317-21.66,56.045c-13.061,15.132-25.399,29.424-19.646,42.235
							c5.76,12.823,24.641,13.099,44.632,13.391c22.098,0.323,47.142,0.688,56.292,21.06c9.151,20.372-7.212,39.336-21.65,56.067
							c-13.061,15.139-25.396,29.434-19.636,42.26L1237.199,770.923z"/>
					</g>
				</g>
			</g>
			<g>
				<g>
					<g>
						<path style="fill:#501E65;" d="M2690.856,3598.163c-9.15-20.375,7.213-39.343,21.65-56.077
							c13.058-15.135,25.393-29.427,19.633-42.248c-5.76-12.826-24.641-13.105-44.633-13.397
							c-22.097-0.317-47.141-0.685-56.292-21.054c-9.144-20.363,7.222-39.323,21.663-56.051
							c13.062-15.13,25.399-29.421,19.646-42.229c-5.757-12.82-24.642-13.093-44.63-13.385
							c-22.094-0.317-47.138-0.685-56.286-21.042c-9.144-20.369,7.222-39.323,21.663-56.051c13.061-15.13,25.4-29.425,19.646-42.235
							l11.85-5.322c9.144,20.359-7.222,39.317-21.663,56.045c-13.061,15.129-25.399,29.421-19.646,42.241
							c5.757,12.808,24.635,13.087,44.623,13.373c22.097,0.323,47.145,0.685,56.292,21.047c9.144,20.363-7.222,39.323-21.663,56.051
							c-13.061,15.129-25.399,29.421-19.646,42.229c5.76,12.826,24.644,13.105,44.633,13.397
							c22.097,0.317,47.145,0.685,56.292,21.06c9.15,20.363-7.213,39.33-21.647,56.058c-13.061,15.142-25.396,29.44-19.636,42.26
							L2690.856,3598.163z"/>
					</g>
				</g>
			</g>
		</g>
		<g>
			<g>
				<g>
					<g>
						<path style="fill:#501E65;" d="M454.918,1454.25c-20.873-7.936-22.713-32.916-24.337-54.957
							c-1.469-19.938-2.858-38.768-15.998-43.764c-13.137-4.986-26.687,8.164-41.027,22.088
							c-15.859,15.399-33.83,32.847-54.7,24.914c-20.86-7.929-22.694-32.907-24.311-54.944
							c-1.462-19.938-2.842-38.768-15.973-43.758c-13.131-4.983-26.678,8.164-41.017,22.094
							c-15.846,15.402-33.811,32.856-54.684,24.917c-20.864-7.929-22.697-32.907-24.312-54.947
							c-1.465-19.934-2.845-38.762-15.973-43.754l4.618-12.142c20.86,7.929,22.694,32.907,24.311,54.944
							c1.462,19.937,2.842,38.768,15.973,43.757c13.131,4.995,26.674-8.164,41.014-22.094
							c15.849-15.402,33.808-32.856,54.687-24.917c20.864,7.929,22.697,32.907,24.311,54.947
							c1.465,19.934,2.845,38.765,15.973,43.754c13.134,4.986,26.69-8.161,41.03-22.091c15.856-15.402,33.82-32.859,54.697-24.911
							c20.873,7.933,22.713,32.913,24.337,54.951c1.469,19.941,2.855,38.771,15.998,43.77L454.918,1454.25z"/>
					</g>
				</g>
			</g>
			<g>
				<g>
					<g>
						<path style="fill:#501E65;" d="M3755.362,2597.605c-20.876-7.932-22.716-32.916-24.34-54.957
							c-1.472-19.937-2.854-38.768-15.998-43.763c-13.125-4.983-26.681,8.161-41.03,22.091
							c-15.846,15.395-33.798,32.869-54.694,24.911c-20.858-7.926-22.691-32.907-24.308-54.944
							c-1.465-19.934-2.849-38.765-15.979-43.757c-13.074-4.973-26.674,8.167-41.017,22.094
							c-15.852,15.402-33.817,32.846-54.681,24.92c-20.864-7.929-22.697-32.91-24.315-54.947
							c-1.462-19.934-2.845-38.765-15.973-43.757l4.618-12.141c20.864,7.929,22.697,32.91,24.314,54.948
							c1.462,19.934,2.845,38.765,15.973,43.757c13.118,4.973,26.674-8.167,41.01-22.097c15.859-15.393,33.798-32.844,54.687-24.917
							c20.864,7.929,22.697,32.91,24.315,54.95c1.465,19.931,2.848,38.762,15.973,43.751c13.143,4.998,26.687-8.158,41.03-22.092
							c15.846-15.392,33.804-32.869,54.694-24.911c20.87,7.933,22.71,32.91,24.333,54.95c1.472,19.941,2.861,38.775,16.005,43.77
							L3755.362,2597.605z"/>
					</g>
				</g>
			</g>
		</g>
		<g>
			<g>
				<g>
					<g>
						<path style="fill:#501E65;" d="M210.779,2706.057c-15.792,0.003-30.582-12.767-43.948-24.305
							c-15.129-13.061-29.411-25.415-42.235-19.646l-5.322-11.85c20.359-9.16,39.317,7.222,56.045,21.66
							c15.126,13.061,29.396,25.418,42.235,19.646c12.817-5.757,13.09-24.638,13.378-44.626c0.32-22.094,0.682-47.139,21.048-56.286
							c20.359-9.16,39.317,7.222,56.045,21.66c15.126,13.061,29.399,25.415,42.235,19.646c12.823-5.76,13.099-24.641,13.391-44.633
							c0.323-22.098,0.688-47.142,21.06-56.292c20.372-9.157,39.339,7.209,56.067,21.65c15.136,13.058,29.431,25.38,42.26,19.636
							l5.322,11.849c-20.372,9.148-39.336-7.212-56.067-21.65c-15.136-13.061-29.443-25.396-42.26-19.636
							c-12.823,5.76-13.099,24.641-13.391,44.633c-0.323,22.097-0.688,47.142-21.06,56.292c-20.369,9.16-39.317-7.222-56.045-21.66
							c-15.129-13.062-29.408-25.418-42.235-19.646c-12.817,5.757-13.09,24.638-13.378,44.626
							c-0.32,22.094-0.682,47.138-21.048,56.286C218.785,2705.251,214.751,2706.057,210.779,2706.057z"/>
					</g>
				</g>
			</g>
			<g>
				<g>
					<g>
						<path style="fill:#501E65;" d="M3414.768,1361.207c-15.792,0-30.582-12.77-43.947-24.308
							c-15.133-13.061-29.421-25.377-42.235-19.646l-5.322-11.849c20.366-9.147,39.321,7.222,56.045,21.663
							c15.133,13.068,29.421,25.393,42.235,19.646c12.817-5.757,13.09-24.638,13.378-44.626c0.32-22.097,0.682-47.142,21.048-56.289
							c20.356-9.138,39.323,7.222,56.048,21.663c15.132,13.061,29.443,25.409,42.232,19.646
							c12.826-5.76,13.105-24.645,13.397-44.633c0.317-22.097,0.685-47.145,21.06-56.292c20.363-9.151,39.33,7.216,56.057,21.647
							c15.135,13.058,29.427,25.387,42.26,19.636l5.329,11.849c-20.375,9.138-39.336-7.213-56.076-21.65
							c-15.136-13.061-29.44-25.39-42.248-19.633c-12.826,5.76-13.105,24.641-13.397,44.633
							c-0.317,22.098-0.685,47.141-21.054,56.292c-20.369,9.144-39.323-7.225-56.048-21.663
							c-15.129-13.058-29.415-25.393-42.238-19.646c-12.817,5.757-13.089,24.638-13.378,44.626
							c-0.32,22.097-0.682,47.141-21.047,56.289C3422.773,1360.398,3418.739,1361.207,3414.768,1361.207z"/>
					</g>
				</g>
			</g>
		</g>
		<g>
			<g>
				<g>
					<g>
						<path style="fill:#501E65;" d="M1130.346,3483.91l-12.141-4.618c7.929-20.864,32.91-22.697,54.95-24.314
							c19.935-1.465,38.762-2.849,43.751-15.973c4.992-13.131-8.164-26.674-22.094-41.01c-15.399-15.853-32.85-33.817-24.917-54.687
							c7.929-20.864,32.91-22.697,54.95-24.315c19.931-1.465,38.762-2.848,43.751-15.973c4.995-13.137-8.161-26.687-22.091-41.03
							c-15.396-15.852-32.847-33.823-24.911-54.697c7.933-20.873,32.913-22.713,54.951-24.337
							c19.941-1.468,38.771-2.854,43.77-15.998l12.141,4.618c-7.936,20.873-32.917,22.713-54.957,24.336
							c-19.938,1.469-38.768,2.858-43.764,15.998c-4.995,13.14,8.161,26.687,22.091,41.03c15.396,15.855,32.846,33.82,24.911,54.697
							c-7.926,20.857-32.907,22.69-54.944,24.308c-19.935,1.466-38.765,2.849-43.758,15.979
							c-4.992,13.131,8.164,26.674,22.094,41.01c15.399,15.853,32.85,33.817,24.917,54.687
							c-7.926,20.858-32.904,22.691-54.941,24.308C1154.169,3469.396,1135.339,3470.779,1130.346,3483.91z"/>
					</g>
				</g>
			</g>
			<g>
				<g>
					<g>
						<path style="fill:#501E65;" d="M2327.292,807.056l-12.141-4.618c7.929-20.864,32.91-22.697,54.947-24.315
							c19.935-1.462,38.765-2.845,43.758-15.973c4.989-13.131-8.167-26.674-22.098-41.014
							c-15.399-15.849-32.85-33.814-24.917-54.684c7.929-20.864,32.907-22.697,54.947-24.315
							c19.935-1.462,38.765-2.845,43.754-15.973c4.996-13.141-8.161-26.684-22.088-41.027c-15.399-15.856-32.85-33.823-24.914-54.7
							c7.932-20.873,32.913-22.713,54.953-24.334c19.938-1.469,38.772-2.858,43.767-15.998l12.141,4.618
							c-7.932,20.873-32.913,22.713-54.953,24.334c-19.938,1.469-38.772,2.858-43.767,15.998
							c-4.995,13.14,8.161,26.687,22.091,41.03c15.396,15.856,32.847,33.823,24.911,54.697
							c-7.93,20.864-32.907,22.697-54.947,24.314c-19.934,1.462-38.765,2.845-43.754,15.973
							c-4.992,13.134,8.167,26.677,22.094,41.014c15.399,15.849,32.853,33.814,24.92,54.684
							c-7.929,20.864-32.91,22.697-54.947,24.315C2351.115,792.545,2332.284,793.928,2327.292,807.056z"/>
					</g>
				</g>
			</g>
		</g>
	</g>
	<g>
		<g>
			<path style="fill:#3A174C;" d="M3357.887,3114.016H1421.6c-24.854,0-45.19-20.335-45.19-45.19v-455.261
				c0-24.854,20.335-45.19,45.19-45.19h1936.287c24.854,0,45.19,20.335,45.19,45.19v455.261
				C3403.077,3093.68,3382.741,3114.016,3357.887,3114.016z"/>
		</g>
		<g>
			<path style="fill:#FFFFFF;" d="M3336.047,3068.545H1443.44c-11.888,0-21.56-9.668-21.56-21.558v-411.584
				c0-11.889,9.672-21.558,21.56-21.558h1892.607c11.886,0,21.558,9.668,21.558,21.558v411.584
				C3357.604,3058.876,3347.932,3068.545,3336.047,3068.545z M1443.44,2626.834c-4.724,0-8.567,3.843-8.567,8.569v411.584
				c0,4.726,3.843,8.569,8.567,8.569h1892.607c4.726,0,8.569-3.843,8.569-8.569v-411.584c0-4.726-3.843-8.569-8.569-8.569H1443.44z"
				/>
		</g>
		<g>
			<g>
				<g>
					<polygon style="fill:#3A174C;" points="721.425,2380.232 688.995,2421.677 1440.881,2855.856 1510.673,2835.986 					"/>
				</g>
			</g>
			<g>
				<g>
					<path style="fill:#3A174C;" d="M654.662,2465.552l-9.623,12.298c-7.796,9.963-14.761,20.019-21.112,30.126l673.276,388.785
						l69.793-19.87L654.662,2465.552z"/>
				</g>
			</g>
			<g>
				<g>
					<path style="fill:#3A174C;" d="M598.544,2557.02c-6.999,17.006-12.25,34.039-15.929,50.973l570.909,329.673l69.792-19.869
						L598.544,2557.02z"/>
				</g>
			</g>
			<g>
				<g>
					<polygon style="fill:#3A174C;" points="788.188,2294.912 755.759,2336.356 1584.56,2814.951 1654.353,2795.081 					"/>
				</g>
			</g>
			<g>
				<g>
					<polygon style="fill:#3A174C;" points="854.952,2209.592 822.521,2251.036 1728.239,2774.045 1798.031,2754.176 					"/>
				</g>
			</g>
			<g>
				<g>
					<path style="fill:#3A174C;" d="M1656.113,1185.749l-32.43,41.444l1755.032,1013.449c10.36-13.813,19.584-28.589,27.59-44.24
						L1656.113,1185.749z"/>
				</g>
			</g>
			<g>
				<g>
					<path style="fill:#3A174C;" d="M1722.876,1100.428l-32.43,41.445l1736.765,1002.9c3.673-11.911,6.86-24.1,9.249-36.688
						c1.054-5.554,1.827-11.097,2.602-16.64L1722.876,1100.428z"/>
				</g>
			</g>
			<g>
				<g>
					<polygon style="fill:#3A174C;" points="921.715,2124.271 889.285,2165.716 1871.917,2733.14 1941.71,2713.271 					"/>
				</g>
			</g>
			<g>
				<g>
					<path style="fill:#3A174C;" d="M575.755,2667.733c-0.307,21.694,1.72,42.92,5.59,63.399l428.5,247.439l69.792-19.87
						L575.755,2667.733z"/>
				</g>
			</g>
			<g>
				<g>
					<path style="fill:#3A174C;" d="M1832.709,960.067l-8.737,11.165l1573.075,908.377c-18.735-31.356-42.987-59.928-72.425-84.444
						l-68.719-57.231L1858.54,931.022C1849.416,940.091,1840.773,949.762,1832.709,960.067z"/>
				</g>
			</g>
			<g>
				<g>
					<path style="fill:#3A174C;" d="M606.155,2809.161c7.303,16.079,15.611,31.234,24.662,45.193
						c12.289,18.953,27.08,37.488,44.103,54.687l145.268,83.886c34.401,8.341,71.969,10.663,112.327,4.692L606.155,2809.161z"/>
				</g>
			</g>
			<g>
				<g>
					<path style="fill:#3A174C;" d="M1522.586,1356.389l-32.43,41.444l1674.87,967.159l54.377-15.481
						c5.012-1.43,9.881-3.111,14.764-4.765L1522.586,1356.389z"/>
				</g>
			</g>
			<g>
				<g>
					<polygon style="fill:#3A174C;" points="1255.532,1697.67 1223.102,1739.115 2590.311,2528.614 2660.103,2508.744 					"/>
				</g>
			</g>
			<g>
				<g>
					<path style="fill:#3A174C;" d="M1789.639,1015.108l-32.43,41.445l1684.718,972.845c-1.052-22.448-4.376-44.495-9.916-65.897
						L1789.639,1015.108z"/>
				</g>
			</g>
			<g>
				<g>
					<path style="fill:#3A174C;" d="M1589.349,1271.069l-32.43,41.444l1738.417,1003.855c16.284-9.903,31.396-21.317,45.347-33.986
						L1589.349,1271.069z"/>
				</g>
			</g>
			<g>
				<g>
					<path style="fill:#3A174C;" d="M1958.807,865.049c-19.199,7.669-37.469,17.249-54.597,28.644l1102.246,636.496
						l-235.623-196.233L1958.807,865.049z"/>
				</g>
			</g>
			<g>
				<g>
					<path style="fill:#3A174C;" d="M2159.02,856.79c-39.915-12.066-81.88-15.938-123.427-11.102l485.794,280.523l-235.623-196.233
						L2159.02,856.79z"/>
				</g>
			</g>
			<g>
				<g>
					<polygon style="fill:#3A174C;" points="1455.822,1441.709 1423.392,1483.154 3021.347,2405.898 3091.139,2386.029 					"/>
				</g>
			</g>
			<g>
				<g>
					<polygon style="fill:#3A174C;" points="1389.059,1527.03 1356.629,1568.474 2877.668,2446.803 2947.46,2426.934 					"/>
				</g>
			</g>
			<g>
				<g>
					<polygon style="fill:#3A174C;" points="988.479,2038.951 956.048,2080.396 2015.596,2692.235 2085.388,2672.365 					"/>
				</g>
			</g>
			<g>
				<g>
					<polygon style="fill:#3A174C;" points="1122.005,1868.311 1089.575,1909.755 2302.953,2610.424 2372.746,2590.555 					"/>
				</g>
			</g>
			<g>
				<g>
					<polygon style="fill:#3A174C;" points="1055.242,1953.631 1022.812,1995.075 2159.275,2651.33 2229.067,2631.46 					"/>
				</g>
			</g>
			<g>
				<g>
					<polygon style="fill:#3A174C;" points="1322.296,1612.35 1289.865,1653.795 2733.99,2487.709 2803.782,2467.839 					"/>
				</g>
			</g>
			<g>
				<g>
					<polygon style="fill:#3A174C;" points="1188.769,1782.99 1156.338,1824.435 2446.632,2569.519 2516.425,2549.65 					"/>
				</g>
			</g>
		</g>
		<g>
			
				<ellipse transform="matrix(0.7071 -0.7071 0.7071 0.7071 -720.9413 1350.0887)" style="fill:#3A174C;" cx="1269.231" cy="1545.297" rx="688.547" ry="688.547"/>
		</g>
		<g>
			<path style="fill:#FFFFFF;" d="M1269.231,2188.375c-354.593,0-643.077-288.484-643.077-643.077
				c0-354.595,288.484-643.078,643.077-643.078c354.595,0,643.078,288.484,643.078,643.078
				C1912.309,1899.891,1623.825,2188.375,1269.231,2188.375z M1269.231,915.213c-347.429,0-630.084,282.655-630.084,630.086
				c0,347.429,282.655,630.084,630.084,630.084c347.431,0,630.086-282.655,630.086-630.084
				C1899.316,1197.867,1616.662,915.213,1269.231,915.213z"/>
		</g>
		<g>
			<path style="fill:#FECE00;" d="M3226.93,2006.197l-1490.616,1052c-163.098,115.106-388.627,76.201-503.733-86.897
				L490.838,1920.299c-168.938-239.375,2.168-569.741,295.153-569.872l2232.359-0.999
				C3371.118,1349.27,3515.148,1802.787,3226.93,2006.197z"/>
		</g>
		<g>
			<path style="fill:#3A174C;" d="M1529.222,3046.17c-90.324,0-178.797-43.079-232.954-119.818l-741.745-1051
				c-50.765-71.935-65.416-157.497-41.253-240.929c24.138-83.352,85.187-152.416,163.303-184.751
				c34.098-14.114,70.922-21.278,109.449-21.298l2232.361-0.999c0.048,0,0.107,0,0.154,0c152.916,0,239.824,102.107,270.179,197.692
				c30.365,95.614,18.274,229.218-106.73,317.442L1691.369,2994.512c-17.33,12.228-35.941,22.499-55.318,30.52
				C1601.53,3039.323,1565.222,3046.17,1529.222,3046.17z M681.542,1461.676L681.542,1461.676
				c-74.503,30.838-132.743,96.767-155.794,176.362c-23.042,79.562-9.052,161.182,39.388,229.823l741.745,1051.003
				c72.273,102.401,208.618,142.005,324.202,94.164c18.487-7.653,36.251-17.454,52.795-29.13l1490.614-1052.002
				c119.281-84.183,130.818-211.663,101.846-302.898c-28.964-91.2-111.908-188.631-257.804-188.631c-0.052,0-0.092,0-0.143,0
				l-2232.361,0.999C749.216,1441.383,714.057,1448.218,681.542,1461.676z"/>
		</g>
	</g>
	<g>
		<path style="fill:#3A174C;" d="M3084.785,1301.708c-42.98,0-77.946-34.968-77.946-77.949s34.966-77.949,77.946-77.949
			c42.983,0,77.949,34.968,77.949,77.949S3127.769,1301.708,3084.785,1301.708z M3084.785,1158.802
			c-35.816,0-64.957,29.139-64.957,64.957s29.141,64.957,64.957,64.957c35.819,0,64.96-29.139,64.96-64.957
			S3120.605,1158.802,3084.785,1158.802z"/>
	</g>
	<g>
		<path style="fill:#3A174C;" d="M1025.641,3263.414c-42.981,0-77.949-34.966-77.949-77.946c0-42.983,34.968-77.949,77.949-77.949
			c42.981,0,77.949,34.966,77.949,77.949C1103.59,3228.448,1068.622,3263.414,1025.641,3263.414z M1025.641,3120.508
			c-35.818,0-64.957,29.141-64.957,64.96c0,35.816,29.139,64.957,64.957,64.957s64.957-29.141,64.957-64.957
			C1090.597,3149.649,1061.458,3120.508,1025.641,3120.508z"/>
	</g>
	<g>
		<path style="fill:#3A174C;" d="M1561.539,739.828c-42.981,0-77.949-34.968-77.949-77.949c0-42.981,34.968-77.949,77.949-77.949
			c42.981,0,77.949,34.968,77.949,77.949C1639.488,704.86,1604.52,739.828,1561.539,739.828z M1561.539,596.922
			c-35.818,0-64.957,29.139-64.957,64.957s29.139,64.957,64.957,64.957s64.957-29.139,64.957-64.957
			S1597.356,596.922,1561.539,596.922z"/>
	</g>
	<g>
		<g>
			<rect x="177.949" y="1720.682" style="fill:#3A174C;" width="142.906" height="12.993"/>
		</g>
		<g>
			<rect x="242.906" y="1655.726" style="fill:#3A174C;" width="12.993" height="142.904"/>
		</g>
	</g>
	<g>
		<g>
			<rect x="2159.146" y="3364.102" style="fill:#3A174C;" width="142.906" height="12.989"/>
		</g>
		<g>
			<rect x="2224.103" y="3299.142" style="fill:#3A174C;" width="12.989" height="142.91"/>
		</g>
	</g>
	<g>
		<g>
			<rect x="3549.23" y="2928.89" style="fill:#3A174C;" width="142.906" height="12.989"/>
		</g>
		<g>
			<rect x="3614.191" y="2863.929" style="fill:#3A174C;" width="12.989" height="142.906"/>
		</g>
	</g>
	<g>
		<g>
			<rect x="3549.23" y="1616.749" style="fill:#3A174C;" width="142.906" height="12.993"/>
		</g>
		<g>
			<rect x="3614.191" y="1551.793" style="fill:#3A174C;" width="12.989" height="142.906"/>
		</g>
	</g>
	<g>
		<g>
			<rect x="821.026" y="726.836" style="fill:#3A174C;" width="142.906" height="12.993"/>
		</g>
		<g>
			<rect x="885.982" y="661.879" style="fill:#3A174C;" width="12.993" height="142.906"/>
		</g>
	</g>
	<g>
		<g>
			<rect x="2672.308" y="837.263" style="fill:#3A174C;" width="142.906" height="12.993"/>
		</g>
		<g>
			<rect x="2737.264" y="772.307" style="fill:#3A174C;" width="12.989" height="142.906"/>
		</g>
	</g>
	<g>
		<path style="fill:#3A174C;" d="M298.12,2410.234l-68.377-39.475v-78.957l68.377-39.477l68.377,39.477v78.957L298.12,2410.234z
			 M242.736,2363.257l55.384,31.973l55.384-31.973v-63.953l-55.384-31.976l-55.384,31.976V2363.257z"/>
	</g>
	<g>
		<path style="fill:#3A174C;" d="M3656.409,2286.815l-68.373-39.477v-78.955l68.373-39.475l68.377,39.475v78.955L3656.409,2286.815z
			 M3601.025,2239.836l55.384,31.974l55.387-31.974v-63.951l-55.387-31.976l-55.384,31.976V2239.836z"/>
	</g>
	<g>
		<path style="fill:#3A174C;" d="M2948.378,3449.553l-68.377-39.479v-78.957l68.377-39.479l68.373,39.479v78.957L2948.378,3449.553z
			 M2892.99,3402.573l55.388,31.976l55.384-31.976v-63.953l-55.384-31.976l-55.388,31.976V3402.573z"/>
	</g>
	<g>
		<path style="fill:#3A174C;" d="M421.539,1202.028l-68.377-39.475v-78.955l68.377-39.477l68.377,39.477v78.955L421.539,1202.028z
			 M366.155,1155.051l55.384,31.976l55.384-31.976v-63.951l-55.384-31.978l-55.384,31.978V1155.051z"/>
	</g>
	<g>
		<path style="fill:#3A174C;" d="M2165.641,720.341h-155.895V564.442h155.895V720.341z M2022.735,707.348h129.917V577.435h-129.917
			V707.348z"/>
	</g>
	<g>
		<path style="fill:#3A174C;" d="M1671.966,3403.073h-155.899v-155.895h155.899V3403.073z M1529.061,3390.084h129.913v-129.917
			h-129.913V3390.084z"/>
	</g>
</g>
</svg>
