<?xml version="1.0"?>
<svg xmlns="http://www.w3.org/2000/svg" id="Layer_1" data-name="Layer 1" viewBox="0 0 64 64"><path d="M4.43,36.24a9.19,9.19,0,0,0,2.84,12.1A9.46,9.46,0,0,0,7.1,50.1a9.21,9.21,0,0,0,7.78,9.12A9.71,9.71,0,0,0,32,58.48a9.71,9.71,0,0,0,17.12.74A9.21,9.21,0,0,0,56.9,50.1a9.46,9.46,0,0,0-.17-1.76,9.19,9.19,0,0,0,2.84-12.1,9.23,9.23,0,0,0-.68-11.19,9.24,9.24,0,0,0-6.65-12,6.76,6.76,0,0,0,.4-2.23,6.66,6.66,0,0,0-4.5-6.32C47.29,3.89,40-1.16,35,.25a5.52,5.52,0,0,0-3,2,5.52,5.52,0,0,0-3-2C24-1.16,16.71,3.9,15.86,4.5a6.66,6.66,0,0,0-4.5,6.32,6.76,6.76,0,0,0,.4,2.23,9.24,9.24,0,0,0-6.65,12,9.23,9.23,0,0,0-.68,11.19Zm36.32,8.31A9.69,9.69,0,0,0,33,48.48V23.62a4.2,4.2,0,0,1,4.2-4.2,1,1,0,0,0,0-1.94A6.14,6.14,0,0,0,33,19.15V4.42a3.84,3.84,0,0,1,2.52-2.31c2.62-.72,6.24.85,8.74,2.24a6.71,6.71,0,0,0-5,6.47,1,1,0,0,0,1.94,0,4.76,4.76,0,0,1,4.75-4.76,4.59,4.59,0,0,1,1.43.22,4.73,4.73,0,0,1,2.88,6.53h-.1A9.26,9.26,0,0,0,40.91,22a1,1,0,1,0,1.94,0,7.3,7.3,0,1,1,14,2.85,1,1,0,0,0,.2,1.06A7.3,7.3,0,0,1,51.9,38.39a1,1,0,1,0,0,1.94,9.16,9.16,0,0,0,6.31-2.5,7.29,7.29,0,0,1-3.06,9.22,1,1,0,0,0-.46,1.1,7.12,7.12,0,0,1,.27,2,7.27,7.27,0,0,1-6.55,7.26,1,1,0,0,0-.76.52,7.78,7.78,0,1,1-6.9-11.39h0a1,1,0,0,0,1-1A1,1,0,0,0,40.75,44.55ZM6.92,26a1,1,0,0,0,.2-1.06,7.3,7.3,0,1,1,14-2.85,1,1,0,0,0,1.94,0,9.26,9.26,0,0,0-9.24-9.24h-.1a4.73,4.73,0,0,1,2.88-6.53,4.59,4.59,0,0,1,1.43-.22,4.76,4.76,0,0,1,4.75,4.76,1,1,0,1,0,1.94,0,6.71,6.71,0,0,0-5-6.47c2.5-1.39,6.12-3,8.74-2.24A3.84,3.84,0,0,1,31,4.39V19.15a6.14,6.14,0,0,0-4.2-1.67,1,1,0,0,0,0,1.94,4.2,4.2,0,0,1,4.2,4.2V48.48a9.71,9.71,0,0,0-7.79-3.93,1,1,0,1,0,0,1.94,7.79,7.79,0,1,1-6.9,11.39,1,1,0,0,0-.76-.52A7.27,7.27,0,0,1,9,50.1a7.51,7.51,0,0,1,.26-2,1,1,0,0,0-.45-1.1,7.29,7.29,0,0,1-3.06-9.22,9.16,9.16,0,0,0,6.31,2.5,1,1,0,1,0,0-1.94A7.3,7.3,0,0,1,6.92,26Z"/><path d="M21.11,30.82a4.44,4.44,0,0,1-4.34,3.52,4.31,4.31,0,0,1-1.41-.24,1,1,0,0,0-1.23.62,1,1,0,0,0,.62,1.22,6.34,6.34,0,0,0,8.32-5.1,9,9,0,0,0,5.86-2.91,1,1,0,1,0-1.43-1.31,7.38,7.38,0,0,1-11.65-1.19,7.27,7.27,0,0,1-1-3.73,1,1,0,0,0-1-1h0a1,1,0,0,0-1,1,9.16,9.16,0,0,0,8.23,9.12Z"/><path d="M23.69,40.5c-.24,0-.48,0-.73,0a8,8,0,0,0-7.9,7,7.71,7.71,0,0,0-3.06.82A1,1,0,0,0,12.89,50a5.61,5.61,0,0,1,2.6-.63,5.69,5.69,0,0,1,5.19,8.07,1,1,0,0,0,.88,1.37,1,1,0,0,0,.89-.57A7.64,7.64,0,0,0,17,47.6a6,6,0,0,1,6-5.2,5.25,5.25,0,0,1,.56,0,1,1,0,0,0,.17-1.93Z"/><path d="M47.22,36.28a6.4,6.4,0,0,0,2-.34,1,1,0,0,0,.62-1.22,1,1,0,0,0-1.23-.62,4.32,4.32,0,0,1-1.42.24,4.44,4.44,0,0,1-4.33-3.52,9.16,9.16,0,0,0,8.23-9.12,1,1,0,1,0-1.94,0,7.21,7.21,0,0,1-6.56,7.2,7.19,7.19,0,0,1-6.12-2.28,1,1,0,1,0-1.43,1.31,9,9,0,0,0,5.86,2.91A6.37,6.37,0,0,0,47.22,36.28Z"/><path d="M40.86,55.1a7.69,7.69,0,0,0,.69,3.16,1,1,0,0,0,.89.57,1,1,0,0,0,.88-1.37A5.7,5.7,0,0,1,51.11,50a1,1,0,0,0,1.3-.42A1,1,0,0,0,52,48.29a7.62,7.62,0,0,0-3.05-.82,8,8,0,0,0-7.9-7c-.25,0-.49,0-.73,0a1,1,0,1,0,.17,1.93,5.25,5.25,0,0,1,.56,0,6,6,0,0,1,6,5.2A7.67,7.67,0,0,0,40.86,55.1Z"/></svg>
